<?xml version="1.0"?>
<svg
  xmlns="http://www.w3.org/2000/svg"
  viewBox="0 0 210 210"
  width="32px"
  height="32px">
  <g transform="translate(0.525,0.525) scale(0.995,0.995)">
    <g fill="none"
       stroke="none"
       stroke-width="none"
       style="mix-blend-mode: normal">

      <g id="original-icon" fill="#000000" stroke="none" stroke-width="1" stroke-linejoin="miter">
        <g id="surface1">
          <path
            d="M59.60083,32.8125c-14.71435,0 -26.78833,12.07398 -26.78833,26.78833v90.79834c0,14.71435 12.07398,26.78833 26.78833,26.78833h90.79834c14.71435,0 26.78833,-12.07398 26.78833,-26.78833v-90.79834c0,-14.71435 -12.07398,-26.78833 -26.78833,-26.78833zM59.60083,45.9375h90.79834c7.61352,0 13.66333,6.0498 13.66333,13.66333v90.79834c0,7.61352 -6.0498,13.66333 -13.66333,13.66333h-90.79834c-7.61352,0 -13.66333,-6.0498 -13.66333,-13.66333v-90.79834c0,-7.61352 6.0498,-13.66333 13.66333,-13.66333zM103.1543,80.26245c-4.81934,-0.05127 -8.9209,0 -11.22802,1.12793c-1.53809,0.74341 -2.71729,2.4353 -1.99952,2.5122c0.89722,0.12818 2.92237,0.56397 3.99902,2.02515c1.38428,1.87134 1.33301,6.10108 1.33301,6.10108c0,0 0.76905,11.63818 -1.87134,13.09936c-1.82007,0.99976 -4.30664,-1.02539 -9.68994,-10.27954c-2.74291,-4.76806 -4.81934,-10.0232 -4.81934,-10.0232c0,0 -0.38452,-0.97412 -1.10229,-1.48681c-0.87159,-0.64087 -2.07642,-0.84595 -2.07642,-0.84595l-12.84302,0.0769c0,0 -1.92261,0.07691 -2.61474,0.89722c-0.64087,0.76905 -0.05127,2.28149 -0.05127,2.28149c0,0 10.04883,23.50709 21.43066,35.35034c10.43335,10.86914 22.27661,10.15137 22.27661,10.15137h5.3833c0,0 1.61499,-0.17944 2.4353,-1.05102c0.76904,-0.82031 0.74341,-2.3584 0.74341,-2.3584c0,0 -0.10254,-7.20337 3.22998,-8.28003c3.30689,-1.02539 7.51099,6.97266 11.99707,10.04883c3.40943,2.33277 5.99854,1.82007 5.99854,1.82007l11.99707,-0.17944c0,0 6.25488,-0.38452 3.28125,-5.33203c-0.23071,-0.38452 -1.71753,-3.64013 -8.89527,-10.30517c-7.53662,-6.97266 -6.53687,-5.84473 2.53784,-17.9187c5.51148,-7.35718 7.71606,-11.84327 7.02392,-13.79151c-0.6665,-1.82006 -4.7168,-1.33301 -4.7168,-1.33301l-13.50952,0.07691c0,0 -0.99976,-0.12817 -1.74316,0.30762c-0.71777,0.43579 -1.1792,1.46118 -1.1792,1.46118c0,0 -2.15332,5.69092 -4.99878,10.53589c-5.99853,10.20264 -8.43384,10.7666 -9.40795,10.12573c-2.2815,-1.48682 -1.71753,-5.94727 -1.71753,-9.10034c0,-9.92066 1.51245,-14.02222 -2.92237,-15.09888c-1.46118,-0.35889 -2.53784,-0.5896 -6.28052,-0.61523z"/>
        </g>
      </g>



    </g>
  </g>
</svg>
