<svg xmlns="http://www.w3.org/2000/svg" viewBox="0 0 210 210" width="32" height="32"><path d="M59.828 33.173c-14.641 0-26.655 12.014-26.655 26.655v90.344c0 14.641 12.014 26.655 26.655 26.655h90.344c14.641 0 26.655-12.014 26.655-26.655V59.828c0-14.641-12.014-26.655-26.655-26.655zm0 13.06h90.344c7.576 0 13.595 6.02 13.595 13.595v90.344c0 7.576-6.02 13.595-13.595 13.595H59.828c-7.576 0-13.595-6.02-13.595-13.595V59.828c0-7.576 6.02-13.595 13.595-13.595zm43.336 34.153c-4.796-.05-8.877 0-11.172 1.122-1.53.74-2.704 2.424-1.99 2.5.893.128 2.908.561 3.98 2.015 1.377 1.862 1.325 6.07 1.325 6.07s.766 11.58-1.861 13.035c-1.811.994-4.286-1.02-9.642-10.229-2.73-4.744-4.795-9.973-4.795-9.973s-.383-.969-1.097-1.48c-.867-.637-2.066-.84-2.066-.84l-12.779.076s-1.913.076-2.602.892c-.637.766-.05 2.27-.05 2.27s9.998 23.39 21.323 35.174c10.381 10.815 22.165 10.1 22.165 10.1h5.357s1.607-.178 2.423-1.045c.765-.816.74-2.347.74-2.347s-.103-7.167 3.213-8.238c3.29-1.02 7.474 6.938 11.937 9.998 3.393 2.321 5.969 1.811 5.969 1.811l11.937-.178s6.224-.383 3.265-5.306c-.23-.382-1.71-3.622-8.851-10.253-7.499-6.938-6.504-5.816 2.525-17.83 5.484-7.32 7.678-11.783 6.989-13.722-.663-1.81-4.693-1.326-4.693-1.326l-13.442.076s-.995-.127-1.735.306c-.714.434-1.173 1.454-1.173 1.454s-2.143 5.663-4.974 10.483c-5.968 10.152-8.391 10.713-9.36 10.076-2.27-1.48-1.71-5.918-1.71-9.055 0-9.871 1.505-13.952-2.907-15.024-1.454-.357-2.526-.586-6.25-.612z" fill="#000" stroke-width="1"/></svg>